<?xml version="1.0" encoding="UTF-8" standalone="no"?>
<!-- Created with Inkscape (http://www.inkscape.org/) -->

<svg
   version="1.1"
   id="svg1"
   width="208.96014"
   height="295.52682"
   viewBox="0 0 208.96014 295.52682"
   sodipodi:docname="utbwn-2nu01.ai"
   xmlns:inkscape="http://www.inkscape.org/namespaces/inkscape"
   xmlns:sodipodi="http://sodipodi.sourceforge.net/DTD/sodipodi-0.dtd"
   xmlns="http://www.w3.org/2000/svg"
   xmlns:svg="http://www.w3.org/2000/svg">
  <defs
     id="defs1">
    <clipPath
       clipPathUnits="userSpaceOnUse"
       id="clipPath2">
      <path
         d="M 0,238.653 H 173.728 V 0 H 0 Z"
         transform="translate(-19.980201,-69.011799)"
         id="path2" />
    </clipPath>
    <clipPath
       clipPathUnits="userSpaceOnUse"
       id="clipPath4">
      <path
         d="M 0,238.653 H 173.728 V 0 H 0 Z"
         transform="translate(-74.659902,-93.702205)"
         id="path4" />
    </clipPath>
    <clipPath
       clipPathUnits="userSpaceOnUse"
       id="clipPath6">
      <path
         d="M 0,238.653 H 173.728 V 0 H 0 Z"
         transform="translate(-110.4499,-81.783302)"
         id="path6" />
    </clipPath>
    <clipPath
       clipPathUnits="userSpaceOnUse"
       id="clipPath8">
      <path
         d="M 0,238.653 H 173.728 V 0 H 0 Z"
         transform="translate(-154.782,-96.8878)"
         id="path8" />
    </clipPath>
    <clipPath
       clipPathUnits="userSpaceOnUse"
       id="clipPath10">
      <path
         d="M 0,238.653 H 173.728 V 0 H 0 Z"
         transform="translate(-106.68231,-127.3306)"
         id="path10" />
    </clipPath>
    <clipPath
       clipPathUnits="userSpaceOnUse"
       id="clipPath12">
      <path
         d="M 0,238.653 H 173.728 V 0 H 0 Z"
         transform="translate(-71.468502,-145.0518)"
         id="path12" />
    </clipPath>
  </defs>
  <sodipodi:namedview
     id="namedview1"
     pagecolor="#ffffff"
     bordercolor="#000000"
     borderopacity="0.25"
     inkscape:showpageshadow="2"
     inkscape:pageopacity="0.0"
     inkscape:pagecheckerboard="0"
     inkscape:deskcolor="#d1d1d1">
    <inkscape:page
       x="0"
       y="0"
       inkscape:label="1"
       id="page1"
       width="208.96014"
       height="295.52682"
       margin="80.240944 13.922667 81.602669 15.301746"
       bleed="11.33852 11.338667 11.338667 11.33852" />
  </sodipodi:namedview>
  <g
     id="layer-MC0"
     inkscape:groupmode="layer"
     inkscape:label="圖層 1">
    <path
       id="path1"
       d="m 0,0 16.611,28.4 h 8.842 c 0,0 2.412,-0.268 2.412,-2.679 V 14.289 L 36.26,28.4 h 8.572 c 0,0 2.682,-0.446 2.682,-2.946 V 0 H 38.76 V 18.845 L 28.045,0.09 h -6.432 c 0,0 -1.877,0.179 -2.054,2.054 -0.178,1.876 -0.178,17.504 -0.178,17.504 L 7.68,0 Z"
       style="fill:#004999;fill-opacity:1;fill-rule:nonzero;stroke:none"
       transform="matrix(1.3333333,0,0,-1.3333333,15.301747,214.84975)"
       clip-path="url(#clipPath2)" />
    <path
       id="path3"
       d="M 0,0 C 3.662,0 6.625,2.121 6.625,4.738 6.625,7.353 3.662,9.473 0,9.473 -3.658,9.473 -6.625,7.353 -6.625,4.738 -6.625,2.121 -3.658,0 0,0"
       style="fill:#004999;fill-opacity:1;fill-rule:nonzero;stroke:none"
       transform="matrix(1.3333333,0,0,-1.3333333,88.208013,181.92921)"
       clip-path="url(#clipPath4)" />
    <path
       id="path5"
       d="M 0,0 5.893,9.466 6.609,0 Z m 14.021,12.594 c -0.357,3.035 -2.146,3.126 -2.146,3.126 H 1.518 L -13.933,-9.645 V 8.933 h 8.751 v 5.001 c 0,1.426 -1.963,1.786 -1.963,1.786 h -18.664 c -1.608,0 -2.055,-0.805 -2.055,-0.805 l -3.84,-5.358 h -7.592 v -22.328 h 8.127 V 9.021 h 8.842 v -21.792 h 14.735 l 2.86,5.27 h 8.484 l 2.945,4.91 0.625,-10.268 h 8.574 c 0,0 -1.517,22.416 -1.875,25.453"
       style="fill:#004999;fill-opacity:1;fill-rule:nonzero;stroke:none"
       transform="matrix(1.3333333,0,0,-1.3333333,135.92801,197.82108)"
       clip-path="url(#clipPath6)" />
    <path
       id="path7"
       d="m 0,0 h -16.23 c 0,0 -6.475,-0.442 -9.666,-7.271 -3.194,-6.833 -1.598,-14.991 3.812,-18.893 2.397,-1.684 4.348,-2.039 4.348,-2.039 H -4.08 L 0,-21.994 h -13.393 c 0,0 -7.537,0.975 -5.587,10.376 1.152,3.638 3.193,4.611 5.853,4.878 h 9.49 z"
       style="fill:#004999;fill-opacity:1;fill-rule:nonzero;stroke:none"
       transform="matrix(1.3333333,0,0,-1.3333333,195.03748,177.68175)"
       clip-path="url(#clipPath8)" />
    <path
       id="path9"
       d="m 0,0 2.172,3.544 21.281,5.568 c 0.436,1.645 0.674,3.341 0.674,5.077 0,0.034 -0.004,0.065 -0.004,0.098 l -53.505,-14.4 -1.715,2.972 36.583,9.26 v 1.486 l 18.207,4.678 c -0.261,1.253 -0.654,2.476 -1.148,3.668 L -49.435,2.133 c 6.307,-9.103 19.522,-15.371 34.811,-15.371 17.485,0 32.263,8.2 37.085,19.461 z"
       style="fill:#e60013;fill-opacity:1;fill-rule:nonzero;stroke:none"
       transform="matrix(1.3333333,0,0,-1.3333333,130.90455,137.09135)"
       clip-path="url(#clipPath10)" />
    <path
       id="path11"
       d="m 0,0 0.687,2.172 34.296,9.146 3.661,-4.916 -55.99,-15.546 c 0.42,-1.428 1.002,-2.812 1.721,-4.148 l 16.426,4.488 -0.686,1.373 39.327,11.203 -0.228,1.486 15.48,4.24 c -6.55,8.574 -19.367,14.398 -34.104,14.398 -17.379,0 -32.082,-8.098 -36.998,-19.251 l 21.439,5.987 c 0,0 -2.515,-2.973 -3.543,-5.945 C 1.143,3.772 -0.34,3.43 -0.799,3.315 -1.203,3.214 -14.008,-0.343 -18.078,-1.816 c -0.051,-0.567 -0.082,-1.139 -0.082,-1.716 0,-0.436 0.015,-0.869 0.045,-1.3 z"
       style="fill:#e60013;fill-opacity:1;fill-rule:nonzero;stroke:none"
       transform="matrix(1.3333333,0,0,-1.3333333,83.952813,113.46308)"
       clip-path="url(#clipPath12)" />
  </g>
</svg>
