<?xml version="1.0" encoding="UTF-8" standalone="no"?>
<!-- Created with Inkscape (http://www.inkscape.org/) -->

<svg
   version="1.1"
   id="svg1"
   width="473.44666"
   height="100.56493"
   viewBox="0 0 473.44666 100.56493"
   sodipodi:docname="wdt9c-exiq1.ai"
   xmlns:inkscape="http://www.inkscape.org/namespaces/inkscape"
   xmlns:sodipodi="http://sodipodi.sourceforge.net/DTD/sodipodi-0.dtd"
   xmlns="http://www.w3.org/2000/svg"
   xmlns:svg="http://www.w3.org/2000/svg">
  <defs
     id="defs1">
    <clipPath
       clipPathUnits="userSpaceOnUse"
       id="clipPath2">
      <path
         d="M 0,75.424 H 355.085 V 0 H 0 Z"
         transform="translate(-7.9706004,-38.313301)"
         id="path2" />
    </clipPath>
    <clipPath
       clipPathUnits="userSpaceOnUse"
       id="clipPath4">
      <path
         d="M 0,75.424 H 355.085 V 0 H 0 Z"
         transform="translate(-53.433502,-59.452001)"
         id="path4" />
    </clipPath>
    <clipPath
       clipPathUnits="userSpaceOnUse"
       id="clipPath6">
      <path
         d="M 0,75.424 H 355.085 V 0 H 0 Z"
         transform="translate(-83.1874,-49.248901)"
         id="path6" />
    </clipPath>
    <clipPath
       clipPathUnits="userSpaceOnUse"
       id="clipPath8">
      <path
         d="M 0,75.424 H 355.085 V 0 H 0 Z"
         transform="translate(-119.496,-62.705901)"
         id="path8" />
    </clipPath>
    <clipPath
       clipPathUnits="userSpaceOnUse"
       id="clipPath10">
      <path
         d="M 0,75.424 H 355.085 V 0 H 0 Z"
         transform="translate(-168.789,-42.044801)"
         id="path10" />
    </clipPath>
    <clipPath
       clipPathUnits="userSpaceOnUse"
       id="clipPath12">
      <path
         d="M 0,75.424 H 355.085 V 0 H 0 Z"
         transform="translate(-146.0917,-53.467601)"
         id="path12" />
    </clipPath>
    <clipPath
       clipPathUnits="userSpaceOnUse"
       id="clipPath14">
      <path
         d="M 0,75.424 H 355.085 V 0 H 0 Z"
         transform="translate(-15.3808,-9.5028005)"
         id="path14" />
    </clipPath>
    <clipPath
       clipPathUnits="userSpaceOnUse"
       id="clipPath16">
      <path
         d="M 0,75.424 H 355.085 V 0 H 0 Z"
         transform="translate(-21.4033,-9.5028005)"
         id="path16" />
    </clipPath>
    <clipPath
       clipPathUnits="userSpaceOnUse"
       id="clipPath18">
      <path
         d="M 0,75.424 H 355.085 V 0 H 0 Z"
         transform="translate(-30.407201,-9.5028005)"
         id="path18" />
    </clipPath>
    <clipPath
       clipPathUnits="userSpaceOnUse"
       id="clipPath20">
      <path
         d="M 0,75.424 H 355.085 V 0 H 0 Z"
         transform="translate(-41.956001,-13.7323)"
         id="path20" />
    </clipPath>
    <clipPath
       clipPathUnits="userSpaceOnUse"
       id="clipPath22">
      <path
         d="M 0,75.424 H 355.085 V 0 H 0 Z"
         transform="translate(-54.166901,-13.4354)"
         id="path22" />
    </clipPath>
    <clipPath
       clipPathUnits="userSpaceOnUse"
       id="clipPath24">
      <path
         d="M 0,75.424 H 355.085 V 0 H 0 Z"
         transform="translate(-64.115201,-9.5028005)"
         id="path24" />
    </clipPath>
    <clipPath
       clipPathUnits="userSpaceOnUse"
       id="clipPath26">
      <path
         d="M 0,75.424 H 355.085 V 0 H 0 Z"
         transform="translate(-77.420799,-9.5028005)"
         id="path26" />
    </clipPath>
    <clipPath
       clipPathUnits="userSpaceOnUse"
       id="clipPath28">
      <path
         d="M 0,75.424 H 355.085 V 0 H 0 Z"
         transform="translate(-79.036104,-9.5028005)"
         id="path28" />
    </clipPath>
    <clipPath
       clipPathUnits="userSpaceOnUse"
       id="clipPath30">
      <path
         d="M 0,75.424 H 355.085 V 0 H 0 Z"
         transform="translate(-91.4872,-13.829)"
         id="path30" />
    </clipPath>
    <clipPath
       clipPathUnits="userSpaceOnUse"
       id="clipPath32">
      <path
         d="M 0,75.424 H 355.085 V 0 H 0 Z"
         transform="translate(-104.206,-15.662)"
         id="path32" />
    </clipPath>
    <clipPath
       clipPathUnits="userSpaceOnUse"
       id="clipPath34">
      <path
         d="M 0,75.424 H 355.085 V 0 H 0 Z"
         transform="translate(-118.2109,-9.5028005)"
         id="path34" />
    </clipPath>
    <clipPath
       clipPathUnits="userSpaceOnUse"
       id="clipPath36">
      <path
         d="M 0,75.424 H 355.085 V 0 H 0 Z"
         transform="translate(-131.7753,-13.7323)"
         id="path36" />
    </clipPath>
    <clipPath
       clipPathUnits="userSpaceOnUse"
       id="clipPath38">
      <path
         d="M 0,75.424 H 355.085 V 0 H 0 Z"
         transform="translate(-140.57031,-9.5028005)"
         id="path38" />
    </clipPath>
    <clipPath
       clipPathUnits="userSpaceOnUse"
       id="clipPath40">
      <path
         d="M 0,75.424 H 355.085 V 0 H 0 Z"
         transform="translate(-144.579,-9.5028005)"
         id="path40" />
    </clipPath>
    <clipPath
       clipPathUnits="userSpaceOnUse"
       id="clipPath42">
      <path
         d="M 0,75.424 H 355.085 V 0 H 0 Z"
         transform="translate(-151.6083,-13.829)"
         id="path42" />
    </clipPath>
    <clipPath
       clipPathUnits="userSpaceOnUse"
       id="clipPath44">
      <path
         d="M 0,75.424 H 355.085 V 0 H 0 Z"
         transform="translate(-169.8925,-9.5028005)"
         id="path44" />
    </clipPath>
    <clipPath
       clipPathUnits="userSpaceOnUse"
       id="clipPath46">
      <path
         d="M 0,75.424 H 355.085 V 0 H 0 Z"
         transform="translate(-184.1992,-9.5028005)"
         id="path46" />
    </clipPath>
    <clipPath
       clipPathUnits="userSpaceOnUse"
       id="clipPath48">
      <path
         d="M 0,75.424 H 355.085 V 0 H 0 Z"
         transform="translate(-188.3134,-9.5028005)"
         id="path48" />
    </clipPath>
    <clipPath
       clipPathUnits="userSpaceOnUse"
       id="clipPath50">
      <path
         d="M 0,75.424 H 355.085 V 0 H 0 Z"
         transform="translate(-207.0478,-13.4354)"
         id="path50" />
    </clipPath>
    <clipPath
       clipPathUnits="userSpaceOnUse"
       id="clipPath52">
      <path
         d="M 0,75.424 H 355.085 V 0 H 0 Z"
         transform="translate(-217.7275,-14.3807)"
         id="path52" />
    </clipPath>
    <clipPath
       clipPathUnits="userSpaceOnUse"
       id="clipPath54">
      <path
         d="M 0,75.424 H 355.085 V 0 H 0 Z"
         transform="translate(-230.11521,-9.5028005)"
         id="path54" />
    </clipPath>
    <clipPath
       clipPathUnits="userSpaceOnUse"
       id="clipPath56">
      <path
         d="M 0,75.424 H 355.085 V 0 H 0 Z"
         transform="translate(-234.9286,-13.829)"
         id="path56" />
    </clipPath>
    <clipPath
       clipPathUnits="userSpaceOnUse"
       id="clipPath58">
      <path
         d="M 0,75.424 H 355.085 V 0 H 0 Z"
         transform="translate(-243.83691,-9.5028005)"
         id="path58" />
    </clipPath>
    <clipPath
       clipPathUnits="userSpaceOnUse"
       id="clipPath60">
      <path
         d="M 0,75.424 H 355.085 V 0 H 0 Z"
         transform="translate(-256.19041,-13.829)"
         id="path60" />
    </clipPath>
    <clipPath
       clipPathUnits="userSpaceOnUse"
       id="clipPath62">
      <path
         d="M 0,75.424 H 355.085 V 0 H 0 Z"
         transform="translate(-271.60741,-15.3338)"
         id="path62" />
    </clipPath>
    <clipPath
       clipPathUnits="userSpaceOnUse"
       id="clipPath64">
      <path
         d="M 0,75.424 H 355.085 V 0 H 0 Z"
         transform="translate(-282.97941,-9.5028005)"
         id="path64" />
    </clipPath>
    <clipPath
       clipPathUnits="userSpaceOnUse"
       id="clipPath66">
      <path
         d="M 0,75.424 H 355.085 V 0 H 0 Z"
         transform="translate(-303.29581,-13.4354)"
         id="path66" />
    </clipPath>
    <clipPath
       clipPathUnits="userSpaceOnUse"
       id="clipPath68">
      <path
         d="M 0,75.424 H 355.085 V 0 H 0 Z"
         transform="translate(-308.99601,-13.829)"
         id="path68" />
    </clipPath>
    <clipPath
       clipPathUnits="userSpaceOnUse"
       id="clipPath70">
      <path
         d="M 0,75.424 H 355.085 V 0 H 0 Z"
         transform="translate(-321.71281,-15.662)"
         id="path70" />
    </clipPath>
    <clipPath
       clipPathUnits="userSpaceOnUse"
       id="clipPath72">
      <path
         d="M 0,75.424 H 355.085 V 0 H 0 Z"
         transform="translate(-332.69921,-15.4754)"
         id="path72" />
    </clipPath>
    <clipPath
       clipPathUnits="userSpaceOnUse"
       id="clipPath74">
      <path
         d="M 0,75.424 H 355.085 V 0 H 0 Z"
         transform="translate(-339.62401,-11.5643)"
         id="path74" />
    </clipPath>
  </defs>
  <sodipodi:namedview
     id="namedview1"
     pagecolor="#ffffff"
     bordercolor="#000000"
     borderopacity="0.25"
     inkscape:showpageshadow="2"
     inkscape:pageopacity="0.0"
     inkscape:pagecheckerboard="0"
     inkscape:deskcolor="#d1d1d1">
    <inkscape:page
       x="0"
       y="0"
       inkscape:label="1"
       id="page1"
       width="473.44666"
       height="100.56493"
       margin="12.4112 17.563999 8.7396002 10.627506"
       bleed="0" />
  </sodipodi:namedview>
  <g
     id="layer-MC0"
     inkscape:groupmode="layer"
     inkscape:label="圖層 1">
    <path
       id="path1"
       d="m 0,0 13.812,24.314 h 7.35 c 0,0 2.005,-0.231 2.005,-2.293 v -9.79 l 6.979,12.083 h 7.128 c 0,0 2.229,-0.382 2.229,-2.522 V 0 H 32.226 V 16.132 L 23.316,0.076 h -5.347 c 0,0 -1.56,0.153 -1.709,1.758 C 16.113,3.442 16.113,16.82 16.113,16.82 L 6.387,0 Z"
       style="fill:#005290;fill-opacity:1;fill-rule:nonzero;stroke:none"
       transform="matrix(1.3333333,0,0,-1.3333333,10.627467,49.480533)"
       clip-path="url(#clipPath2)" />
    <path
       id="path3"
       d="M 0,0 C 3.042,0 5.505,1.816 5.505,4.057 5.505,6.294 3.042,8.112 0,8.112 -3.044,8.112 -5.509,6.294 -5.509,4.057 -5.509,1.816 -3.044,0 0,0"
       style="fill:#005290;fill-opacity:1;fill-rule:nonzero;stroke:none"
       transform="matrix(1.3333333,0,0,-1.3333333,71.244667,21.2956)"
       clip-path="url(#clipPath4)" />
    <path
       id="path5"
       d="M 0,0 4.9,8.104 5.496,0 Z m 11.656,10.78 c -0.294,2.599 -1.78,2.677 -1.78,2.677 H 1.263 L -11.583,-8.262 V 7.645 h 7.277 v 4.282 c 0,1.22 -1.632,1.53 -1.632,1.53 h -15.52 c -1.338,0 -1.71,-0.69 -1.71,-0.69 l -3.189,-4.586 h -6.314 v -19.117 h 6.757 V 7.72 h 7.352 v -18.656 h 12.253 l 2.377,4.511 H 3.12 l 2.445,4.206 0.523,-8.793 h 7.129 c 0,0 -1.263,19.193 -1.561,21.792"
       style="fill:#005290;fill-opacity:1;fill-rule:nonzero;stroke:none"
       transform="matrix(1.3333333,0,0,-1.3333333,110.91653,34.899733)"
       clip-path="url(#clipPath6)" />
    <path
       id="path7"
       d="m 0,0 h -13.587 c 0,0 -5.424,-0.383 -8.092,-6.27 -2.675,-5.891 -1.338,-12.923 3.192,-16.289 2.004,-1.451 3.638,-1.757 3.638,-1.757 H -3.415 L 0,-18.964 h -11.212 c 0,0 -6.313,0.841 -4.678,8.946 0.965,3.136 2.674,3.978 4.903,4.206 h 7.942 z"
       style="fill:#005290;fill-opacity:1;fill-rule:nonzero;stroke:none"
       transform="matrix(1.3333333,0,0,-1.3333333,159.328,16.957067)"
       clip-path="url(#clipPath8)" />
    <path
       id="path9"
       d="m 0,0 1.398,2.286 13.719,3.587 c 0.28,1.062 0.435,2.151 0.435,3.273 0,0.021 -0.003,0.042 -0.003,0.064 l -34.486,-9.283 -1.109,1.917 23.584,5.968 v 0.955 l 11.734,3.017 c -0.17,0.808 -0.421,1.598 -0.74,2.365 L -31.863,1.375 c 4.064,-5.867 12.582,-9.907 22.438,-9.907 11.273,0 20.796,5.284 23.904,12.545 z"
       style="fill:#ec1b23;fill-opacity:1;fill-rule:nonzero;stroke:none"
       transform="matrix(1.3333333,0,0,-1.3333333,225.052,44.5052)"
       clip-path="url(#clipPath10)" />
    <path
       id="path11"
       d="M 0,0 0.442,1.399 22.55,7.295 24.908,4.126 -11.181,-5.894 c 0.272,-0.922 0.647,-1.813 1.108,-2.675 l 10.59,2.894 -0.443,0.885 25.35,7.223 -0.148,0.958 9.979,2.731 c -4.224,5.527 -12.483,9.279 -21.983,9.279 -11.202,0 -20.68,-5.216 -23.849,-12.408 l 13.82,3.859 c 0,0 -1.624,-1.916 -2.284,-3.83 C 0.736,2.433 -0.221,2.211 -0.516,2.136 -0.777,2.073 -9.03,-0.22 -11.651,-1.172 c -0.034,-0.365 -0.054,-0.734 -0.054,-1.105 0,-0.282 0.009,-0.56 0.028,-0.836 z"
       style="fill:#ec1b23;fill-opacity:1;fill-rule:nonzero;stroke:none"
       transform="matrix(1.3333333,0,0,-1.3333333,194.78893,29.2748)"
       clip-path="url(#clipPath12)" />
    <path
       id="path13"
       d="M 0,0 H -2.304 L -2.73,9.123 -4.608,0 h -2.191 l 2.464,10.919 H -0.87 L -0.507,3.268 3.52,10.919 H 7.025 L 4.552,0 H 2.337 l 2.327,9.057 z"
       style="fill:#005290;fill-opacity:1;fill-rule:nonzero;stroke:none"
       transform="matrix(1.3333333,0,0,-1.3333333,20.507733,87.894533)"
       clip-path="url(#clipPath14)" />
    <path
       id="path15"
       d="M 0,0 2.473,10.919 H 4.899 L 2.434,0 Z"
       style="fill:#005290;fill-opacity:1;fill-rule:nonzero;stroke:none"
       transform="matrix(1.3333333,0,0,-1.3333333,28.537733,87.894533)"
       clip-path="url(#clipPath16)" />
    <path
       id="path17"
       d="m 0,0 h -2.433 l 2.063,9.094 h -3.464 l 0.41,1.825 H 5.881 L 5.471,9.094 H 2.054 Z"
       style="fill:#005290;fill-opacity:1;fill-rule:nonzero;stroke:none"
       transform="matrix(1.3333333,0,0,-1.3333333,40.542933,87.894533)"
       clip-path="url(#clipPath18)" />
    <path
       id="path19"
       d="M 0,0 -0.684,4.396 -3.535,0 Z m 0.3,-1.817 h -4.681 l -1.418,-2.412 h -2.498 l 6.678,10.918 h 2.7 L 2.998,-4.229 H 0.693 Z"
       style="fill:#005290;fill-opacity:1;fill-rule:nonzero;stroke:none"
       transform="matrix(1.3333333,0,0,-1.3333333,55.941333,82.2552)"
       clip-path="url(#clipPath20)" />
    <path
       id="path21"
       d="M 0,0 2.448,-0.343 C 1.971,-1.57 1.253,-2.508 0.298,-3.155 c -0.956,-0.649 -2.076,-0.972 -3.359,-0.972 -1.445,0 -2.576,0.401 -3.388,1.207 -0.815,0.803 -1.22,1.97 -1.22,3.501 0,1.24 0.272,2.376 0.818,3.406 0.544,1.032 1.3,1.82 2.267,2.366 0.967,0.546 2.019,0.819 3.158,0.819 1.278,0 2.311,-0.316 3.101,-0.948 0.79,-0.633 1.254,-1.496 1.394,-2.59 L 0.74,3.427 C 0.612,4.062 0.364,4.521 -0.004,4.808 -0.373,5.093 -0.862,5.235 -1.474,5.235 -2.146,5.235 -2.772,5.047 -3.356,4.67 -3.938,4.293 -4.405,3.702 -4.753,2.899 c -0.35,-0.8 -0.524,-1.602 -0.524,-2.401 0,-0.874 0.226,-1.55 0.681,-2.025 0.452,-0.478 1.018,-0.716 1.696,-0.716 0.628,0 1.204,0.188 1.727,0.565 C -0.648,-1.3 -0.259,-0.741 0,0"
       style="fill:#005290;fill-opacity:1;fill-rule:nonzero;stroke:none"
       transform="matrix(1.3333333,0,0,-1.3333333,72.222533,82.651067)"
       clip-path="url(#clipPath22)" />
    <path
       id="path23"
       d="M 0,0 2.474,10.919 H 4.897 L 2.432,0 Z"
       style="fill:#005290;fill-opacity:1;fill-rule:nonzero;stroke:none"
       transform="matrix(1.3333333,0,0,-1.3333333,85.486933,87.894533)"
       clip-path="url(#clipPath24)" />
    <path
       id="path25"
       d="M 0,0 H -2.265 L -5.455,7.337 -7.116,0 h -2.262 l 2.465,10.919 h 2.271 l 3.2,-7.308 1.651,7.308 h 2.255 z"
       style="fill:#005290;fill-opacity:1;fill-rule:nonzero;stroke:none"
       transform="matrix(1.3333333,0,0,-1.3333333,103.22773,87.894533)"
       clip-path="url(#clipPath26)" />
    <path
       id="path27"
       d="m 0,0 2.473,10.919 h 8.266 L 10.32,9.094 H 4.488 L 3.892,6.472 H 9.61 L 9.201,4.646 H 3.48 L 2.434,0 Z"
       style="fill:#005290;fill-opacity:1;fill-rule:nonzero;stroke:none"
       transform="matrix(1.3333333,0,0,-1.3333333,105.38147,87.894533)"
       clip-path="url(#clipPath28)" />
    <path
       id="path29"
       d="m 0,0 c 0,-0.75 0.247,-1.378 0.742,-1.884 0.494,-0.507 1.145,-0.761 1.949,-0.761 0.656,0 1.286,0.201 1.89,0.6 0.605,0.399 1.103,1.007 1.499,1.818 0.394,0.812 0.59,1.603 0.59,2.373 0,0.858 -0.249,1.533 -0.748,2.023 C 5.422,4.658 4.785,4.902 4.013,4.902 2.825,4.902 1.86,4.391 1.116,3.367 0.372,2.345 0,1.222 0,0 m -2.4,-0.045 c 0,0.647 0.104,1.326 0.314,2.041 0.274,0.959 0.691,1.791 1.252,2.497 0.562,0.704 1.271,1.263 2.123,1.672 0.855,0.409 1.827,0.613 2.917,0.613 1.461,0 2.641,-0.419 3.541,-1.257 C 8.646,4.681 9.097,3.569 9.097,2.183 9.097,1.03 8.804,-0.084 8.219,-1.162 7.633,-2.239 6.838,-3.069 5.833,-3.65 4.829,-4.23 3.693,-4.521 2.425,-4.521 c -1.101,0 -2.026,0.231 -2.772,0.693 -0.745,0.462 -1.274,1.034 -1.586,1.717 C -2.245,-1.43 -2.4,-0.74 -2.4,-0.045"
       style="fill:#005290;fill-opacity:1;fill-rule:nonzero;stroke:none"
       transform="matrix(1.3333333,0,0,-1.3333333,121.98293,82.126267)"
       clip-path="url(#clipPath30)" />
    <path
       id="path31"
       d="m 0,0 h 1.289 c 1.306,0 2.17,0.072 2.598,0.216 0.426,0.143 0.759,0.37 1.002,0.678 0.242,0.307 0.363,0.63 0.363,0.968 0,0.397 -0.174,0.696 -0.523,0.894 -0.216,0.12 -0.68,0.179 -1.395,0.179 H 0.66 Z M -1.395,-6.159 H -3.828 L -1.354,4.76 H 3.891 C 4.792,4.76 5.494,4.674 5.998,4.503 6.5,4.332 6.905,4.019 7.213,3.561 7.522,3.104 7.677,2.549 7.677,1.899 7.677,0.971 7.377,0.204 6.774,-0.399 6.174,-1.002 5.263,-1.376 4.044,-1.521 4.355,-1.778 4.646,-2.118 4.922,-2.54 5.464,-3.396 6.069,-4.602 6.733,-6.159 H 4.124 c -0.21,0.615 -0.62,1.575 -1.232,2.881 -0.333,0.705 -0.688,1.18 -1.064,1.423 -0.23,0.144 -0.635,0.216 -1.208,0.216 h -0.991 z"
       style="fill:#005290;fill-opacity:1;fill-rule:nonzero;stroke:none"
       transform="matrix(1.3333333,0,0,-1.3333333,138.94133,79.682267)"
       clip-path="url(#clipPath32)" />
    <path
       id="path33"
       d="M 0,0 H -2.304 L -2.73,9.123 -4.607,0 h -2.191 l 2.465,10.919 h 3.464 l 0.361,-7.651 4.029,7.651 H 7.025 L 4.552,0 H 2.337 l 2.328,9.057 z"
       style="fill:#005290;fill-opacity:1;fill-rule:nonzero;stroke:none"
       transform="matrix(1.3333333,0,0,-1.3333333,157.61453,87.894533)"
       clip-path="url(#clipPath34)" />
    <path
       id="path35"
       d="M 0,0 -0.685,4.396 -3.536,0 Z M 0.3,-1.817 H -4.382 L -5.801,-4.229 H -8.297 L -1.619,6.689 H 1.08 L 2.997,-4.229 H 0.693 Z"
       style="fill:#005290;fill-opacity:1;fill-rule:nonzero;stroke:none"
       transform="matrix(1.3333333,0,0,-1.3333333,175.7004,82.2552)"
       clip-path="url(#clipPath36)" />
    <path
       id="path37"
       d="m 0,0 h -2.433 l 2.062,9.094 h -3.465 l 0.412,1.825 H 5.881 L 5.469,9.094 H 2.053 Z"
       style="fill:#005290;fill-opacity:1;fill-rule:nonzero;stroke:none"
       transform="matrix(1.3333333,0,0,-1.3333333,187.42707,87.894533)"
       clip-path="url(#clipPath38)" />
    <path
       id="path39"
       d="M 0,0 2.474,10.919 H 4.898 L 2.433,0 Z"
       style="fill:#005290;fill-opacity:1;fill-rule:nonzero;stroke:none"
       transform="matrix(1.3333333,0,0,-1.3333333,192.772,87.894533)"
       clip-path="url(#clipPath40)" />
    <path
       id="path41"
       d="m 0,0 c 0,-0.75 0.247,-1.378 0.741,-1.884 0.494,-0.507 1.145,-0.761 1.949,-0.761 0.657,0 1.286,0.201 1.891,0.6 0.603,0.399 1.103,1.007 1.498,1.818 C 6.473,0.585 6.67,1.376 6.67,2.146 6.67,3.004 6.42,3.679 5.922,4.169 5.422,4.658 4.785,4.902 4.012,4.902 2.824,4.902 1.859,4.391 1.115,3.367 0.37,2.345 0,1.222 0,0 m -2.4,-0.045 c 0,0.647 0.104,1.326 0.314,2.041 0.273,0.959 0.691,1.791 1.252,2.497 0.56,0.704 1.269,1.263 2.123,1.672 0.855,0.409 1.825,0.613 2.916,0.613 1.461,0 2.641,-0.419 3.541,-1.257 C 8.645,4.681 9.095,3.569 9.095,2.183 9.095,1.03 8.803,-0.084 8.217,-1.162 7.631,-2.239 6.837,-3.069 5.832,-3.65 4.829,-4.23 3.691,-4.521 2.425,-4.521 c -1.102,0 -2.027,0.231 -2.772,0.693 -0.746,0.462 -1.275,1.034 -1.586,1.717 C -2.246,-1.43 -2.4,-0.74 -2.4,-0.045"
       style="fill:#005290;fill-opacity:1;fill-rule:nonzero;stroke:none"
       transform="matrix(1.3333333,0,0,-1.3333333,202.1444,82.126267)"
       clip-path="url(#clipPath42)" />
    <path
       id="path43"
       d="M 0,0 H -2.265 L -5.453,7.337 -7.114,0 h -2.262 l 2.463,10.919 h 2.273 l 3.199,-7.308 1.65,7.308 h 2.256 z"
       style="fill:#005290;fill-opacity:1;fill-rule:nonzero;stroke:none"
       transform="matrix(1.3333333,0,0,-1.3333333,226.52333,87.894533)"
       clip-path="url(#clipPath44)" />
    <path
       id="path45"
       d="m 0,0 h -2.433 l 2.063,9.094 h -3.465 l 0.411,1.825 H 5.882 L 5.47,9.094 H 2.054 Z"
       style="fill:#005290;fill-opacity:1;fill-rule:nonzero;stroke:none"
       transform="matrix(1.3333333,0,0,-1.3333333,245.59893,87.894533)"
       clip-path="url(#clipPath46)" />
    <path
       id="path47"
       d="m 0,0 2.465,10.919 h 8.756 L 10.811,9.094 H 4.485 L 3.923,6.613 h 6.113 L 9.627,4.788 H 3.511 L 2.77,1.824 H 9.643 L 9.223,0 Z"
       style="fill:#005290;fill-opacity:1;fill-rule:nonzero;stroke:none"
       transform="matrix(1.3333333,0,0,-1.3333333,251.08453,87.894533)"
       clip-path="url(#clipPath48)" />
    <path
       id="path49"
       d="M 0,0 2.448,-0.343 C 1.971,-1.57 1.253,-2.508 0.299,-3.155 c -0.956,-0.649 -2.077,-0.972 -3.361,-0.972 -1.443,0 -2.573,0.401 -3.386,1.207 -0.815,0.803 -1.221,1.97 -1.221,3.501 0,1.24 0.273,2.376 0.817,3.406 0.546,1.032 1.302,1.82 2.268,2.366 0.967,0.546 2.02,0.819 3.158,0.819 1.279,0 2.312,-0.316 3.102,-0.948 C 2.464,5.591 2.93,4.728 3.068,3.634 L 0.742,3.427 C 0.613,4.062 0.364,4.521 -0.003,4.808 -0.372,5.093 -0.861,5.235 -1.474,5.235 -2.146,5.235 -2.772,5.047 -3.355,4.67 -3.938,4.293 -4.404,3.702 -4.753,2.899 c -0.35,-0.8 -0.523,-1.602 -0.523,-2.401 0,-0.874 0.226,-1.55 0.68,-2.025 0.453,-0.478 1.018,-0.716 1.696,-0.716 0.628,0 1.205,0.188 1.728,0.565 C -0.649,-1.3 -0.258,-0.741 0,0"
       style="fill:#005290;fill-opacity:1;fill-rule:nonzero;stroke:none"
       transform="matrix(1.3333333,0,0,-1.3333333,276.06373,82.651067)"
       clip-path="url(#clipPath50)" />
    <path
       id="path51"
       d="m 0,0 h -4.568 l -1.104,-4.878 h -2.432 l 2.473,10.919 h 2.424 L -4.157,1.824 H 0.41 L 1.369,6.041 H 3.795 L 1.328,-4.878 h -2.432 z"
       style="fill:#005290;fill-opacity:1;fill-rule:nonzero;stroke:none"
       transform="matrix(1.3333333,0,0,-1.3333333,290.30333,81.390667)"
       clip-path="url(#clipPath52)" />
    <path
       id="path53"
       d="M 0,0 H -2.265 L -5.454,7.337 -7.114,0 h -2.264 l 2.464,10.919 h 2.273 l 3.199,-7.308 1.652,7.308 h 2.256 z"
       style="fill:#005290;fill-opacity:1;fill-rule:nonzero;stroke:none"
       transform="matrix(1.3333333,0,0,-1.3333333,306.82027,87.894533)"
       clip-path="url(#clipPath54)" />
    <path
       id="path55"
       d="m 0,0 c 0,-0.75 0.248,-1.378 0.74,-1.884 0.495,-0.507 1.145,-0.761 1.951,-0.761 0.656,0 1.285,0.201 1.889,0.6 0.606,0.399 1.105,1.007 1.5,1.818 0.393,0.812 0.591,1.603 0.591,2.373 0,0.858 -0.251,1.533 -0.749,2.023 C 5.422,4.658 4.785,4.902 4.012,4.902 2.825,4.902 1.859,4.391 1.117,3.367 0.372,2.345 0,1.222 0,0 m -2.401,-0.045 c 0,0.647 0.106,1.326 0.315,2.041 0.274,0.959 0.691,1.791 1.252,2.497 0.562,0.704 1.27,1.263 2.123,1.672 0.855,0.409 1.826,0.613 2.916,0.613 1.461,0 2.642,-0.419 3.54,-1.257 C 8.646,4.681 9.097,3.569 9.097,2.183 9.097,1.03 8.802,-0.084 8.217,-1.162 7.631,-2.239 6.837,-3.069 5.833,-3.65 4.828,-4.23 3.692,-4.521 2.426,-4.521 c -1.102,0 -2.026,0.231 -2.772,0.693 -0.747,0.462 -1.276,1.034 -1.587,1.717 -0.311,0.681 -0.468,1.371 -0.468,2.066"
       style="fill:#005290;fill-opacity:1;fill-rule:nonzero;stroke:none"
       transform="matrix(1.3333333,0,0,-1.3333333,313.23813,82.126267)"
       clip-path="url(#clipPath56)" />
    <path
       id="path57"
       d="M 0,0 2.472,10.919 H 4.896 L 2.843,1.824 h 6.01 L 8.443,0 Z"
       style="fill:#005290;fill-opacity:1;fill-rule:nonzero;stroke:none"
       transform="matrix(1.3333333,0,0,-1.3333333,325.11587,87.894533)"
       clip-path="url(#clipPath58)" />
    <path
       id="path59"
       d="m 0,0 c 0,-0.75 0.247,-1.378 0.742,-1.884 0.494,-0.507 1.145,-0.761 1.95,-0.761 0.655,0 1.285,0.201 1.889,0.6 0.605,0.399 1.103,1.007 1.499,1.818 0.395,0.812 0.591,1.603 0.591,2.373 0,0.858 -0.25,1.533 -0.748,2.023 C 5.423,4.658 4.786,4.902 4.013,4.902 2.825,4.902 1.861,4.391 1.116,3.367 0.372,2.345 0,1.222 0,0 m -2.4,-0.045 c 0,0.647 0.104,1.326 0.314,2.041 0.274,0.959 0.691,1.791 1.252,2.497 0.562,0.704 1.27,1.263 2.123,1.672 0.855,0.409 1.827,0.613 2.917,0.613 1.461,0 2.641,-0.419 3.541,-1.257 C 8.646,4.681 9.097,3.569 9.097,2.183 9.097,1.03 8.805,-0.084 8.218,-1.162 7.633,-2.239 6.838,-3.069 5.833,-3.65 4.829,-4.23 3.693,-4.521 2.425,-4.521 c -1.101,0 -2.026,0.231 -2.772,0.693 -0.745,0.462 -1.274,1.034 -1.586,1.717 C -2.245,-1.43 -2.4,-0.74 -2.4,-0.045"
       style="fill:#005290;fill-opacity:1;fill-rule:nonzero;stroke:none"
       transform="matrix(1.3333333,0,0,-1.3333333,341.5872,82.126267)"
       clip-path="url(#clipPath60)" />
    <path
       id="path61"
       d="M 0,0 H 5.286 L 4.221,-4.686 C 3.599,-5.058 2.834,-5.373 1.929,-5.631 1.024,-5.889 0.102,-6.019 -0.839,-6.019 c -1.46,0 -2.579,0.306 -3.358,0.917 -1.064,0.834 -1.596,2.043 -1.596,3.627 0,1.063 0.23,2.081 0.685,3.053 0.548,1.173 1.327,2.083 2.337,2.727 1.008,0.647 2.196,0.968 3.56,0.968 1.364,0 2.459,-0.292 3.282,-0.877 C 4.896,3.81 5.442,2.955 5.712,1.832 L 3.448,1.596 C 3.25,2.21 2.929,2.674 2.485,2.988 2.042,3.299 1.484,3.457 0.813,3.457 0.029,3.457 -0.69,3.268 -1.346,2.89 -2,2.512 -2.514,1.93 -2.884,1.141 -3.255,0.35 -3.44,-0.512 -3.44,-1.445 c 0,-0.918 0.226,-1.597 0.676,-2.037 0.451,-0.439 1.113,-0.66 1.983,-0.66 0.52,0 1.053,0.069 1.602,0.205 0.549,0.136 1.02,0.299 1.417,0.489 l 0.364,1.623 H -0.41 Z"
       style="fill:#005290;fill-opacity:1;fill-rule:nonzero;stroke:none"
       transform="matrix(1.3333333,0,0,-1.3333333,362.1432,80.119867)"
       clip-path="url(#clipPath62)" />
    <path
       id="path63"
       d="m 0,0 h -2.424 l 0.959,4.252 -3.256,6.667 h 2.586 l 1.467,-3.084 c 0.349,-0.739 0.582,-1.273 0.7,-1.602 0.198,0.324 0.429,0.665 0.693,1.028 l 1.121,1.446 1.666,2.212 H 6.333 L 0.918,4.043 Z"
       style="fill:#005290;fill-opacity:1;fill-rule:nonzero;stroke:none"
       transform="matrix(1.3333333,0,0,-1.3333333,377.30587,87.894533)"
       clip-path="url(#clipPath64)" />
    <path
       id="path65"
       d="M 0,0 2.448,-0.343 C 1.971,-1.57 1.253,-2.508 0.298,-3.155 c -0.956,-0.649 -2.076,-0.972 -3.361,-0.972 -1.443,0 -2.573,0.401 -3.385,1.207 -0.815,0.803 -1.222,1.97 -1.222,3.501 0,1.24 0.273,2.376 0.818,3.406 0.546,1.032 1.301,1.82 2.268,2.366 0.966,0.546 2.02,0.819 3.157,0.819 1.28,0 2.314,-0.316 3.103,-0.948 C 2.465,5.591 2.93,4.728 3.069,3.634 L 0.741,3.427 C 0.612,4.062 0.364,4.521 -0.004,4.808 -0.372,5.093 -0.861,5.235 -1.475,5.235 -2.146,5.235 -2.772,5.047 -3.355,4.67 -3.938,4.293 -4.404,3.702 -4.753,2.899 c -0.35,-0.8 -0.522,-1.602 -0.522,-2.401 0,-0.874 0.225,-1.55 0.679,-2.025 0.453,-0.478 1.018,-0.716 1.696,-0.716 0.628,0 1.204,0.188 1.727,0.565 C -0.648,-1.3 -0.258,-0.741 0,0"
       style="fill:#005290;fill-opacity:1;fill-rule:nonzero;stroke:none"
       transform="matrix(1.3333333,0,0,-1.3333333,404.3944,82.651067)"
       clip-path="url(#clipPath66)" />
    <path
       id="path67"
       d="m 0,0 c 0,-0.75 0.248,-1.378 0.74,-1.884 0.495,-0.507 1.144,-0.761 1.95,-0.761 0.657,0 1.285,0.201 1.889,0.6 0.605,0.399 1.105,1.007 1.499,1.818 0.395,0.812 0.594,1.603 0.594,2.373 0,0.858 -0.251,1.533 -0.75,2.023 C 5.423,4.658 4.785,4.902 4.012,4.902 2.825,4.902 1.859,4.391 1.116,3.367 0.372,2.345 0,1.222 0,0 m -2.4,-0.045 c 0,0.647 0.104,1.326 0.313,2.041 0.275,0.959 0.691,1.791 1.254,2.497 0.562,0.704 1.268,1.263 2.122,1.672 0.854,0.409 1.826,0.613 2.916,0.613 1.461,0 2.642,-0.419 3.541,-1.257 0.9,-0.84 1.35,-1.952 1.35,-3.338 C 9.096,1.03 8.802,-0.084 8.217,-1.162 7.632,-2.239 6.837,-3.069 5.833,-3.65 4.828,-4.23 3.691,-4.521 2.425,-4.521 c -1.101,0 -2.025,0.231 -2.772,0.693 -0.746,0.462 -1.276,1.034 -1.588,1.717 -0.31,0.681 -0.465,1.371 -0.465,2.066"
       style="fill:#005290;fill-opacity:1;fill-rule:nonzero;stroke:none"
       transform="matrix(1.3333333,0,0,-1.3333333,411.99467,82.126267)"
       clip-path="url(#clipPath68)" />
    <path
       id="path69"
       d="m 0,0 h 1.289 c 1.306,0 2.172,0.072 2.599,0.216 0.427,0.143 0.761,0.37 1.004,0.678 0.24,0.307 0.362,0.63 0.362,0.968 0,0.397 -0.176,0.696 -0.525,0.894 C 4.516,2.876 4.051,2.935 3.336,2.935 H 0.661 Z M -1.393,-6.159 H -3.826 L -1.353,4.76 H 3.892 C 4.796,4.76 5.497,4.674 5.998,4.503 6.5,4.332 6.905,4.019 7.216,3.561 7.523,3.104 7.678,2.549 7.678,1.899 7.678,0.971 7.377,0.204 6.776,-0.399 6.174,-1.002 5.264,-1.376 4.045,-1.521 4.355,-1.778 4.649,-2.118 4.923,-2.54 5.466,-3.396 6.069,-4.602 6.736,-6.159 h -2.61 c -0.21,0.615 -0.621,1.575 -1.234,2.881 -0.332,0.705 -0.687,1.18 -1.063,1.423 -0.23,0.144 -0.634,0.216 -1.209,0.216 h -0.991 z"
       style="fill:#005290;fill-opacity:1;fill-rule:nonzero;stroke:none"
       transform="matrix(1.3333333,0,0,-1.3333333,428.9504,79.682267)"
       clip-path="url(#clipPath70)" />
    <path
       id="path71"
       d="m 0,0 h 0.75 c 1.282,0 2.14,0.075 2.569,0.224 0.429,0.149 0.769,0.387 1.016,0.714 0.246,0.328 0.37,0.689 0.37,1.081 0,0.262 -0.063,0.479 -0.189,0.648 C 4.39,2.836 4.213,2.959 3.984,3.036 3.756,3.112 3.246,3.15 2.456,3.15 H 0.717 Z M -1.345,-5.973 H -3.778 L -1.306,4.946 H 3.497 C 4.351,4.946 5.025,4.853 5.522,4.667 6.02,4.48 6.413,4.173 6.703,3.744 6.992,3.313 7.138,2.802 7.138,2.205 7.138,1.653 7.022,1.117 6.791,0.596 6.561,0.075 6.275,-0.344 5.941,-0.655 5.605,-0.969 5.245,-1.206 4.858,-1.366 4.472,-1.527 3.949,-1.651 3.294,-1.736 2.914,-1.785 2.199,-1.81 1.152,-1.81 h -1.554 z"
       style="fill:#005290;fill-opacity:1;fill-rule:nonzero;stroke:none"
       transform="matrix(1.3333333,0,0,-1.3333333,443.59893,79.931067)"
       clip-path="url(#clipPath72)" />
    <path
       id="path73"
       d="M 0,0 H 2.288 L 1.82,-2.062 h -2.287 z"
       style="fill:#005290;fill-opacity:1;fill-rule:nonzero;stroke:none"
       transform="matrix(1.3333333,0,0,-1.3333333,452.832,85.145867)"
       clip-path="url(#clipPath74)" />
  </g>
</svg>
